<?xml version="1.0" standalone="no"?><!DOCTYPE svg PUBLIC "-//W3C//DTD SVG 1.1//EN" "http://www.w3.org/Graphics/SVG/1.1/DTD/svg11.dtd"><svg t="1547357691428" class="icon" style="" viewBox="0 0 1024 1024" version="1.1" xmlns="http://www.w3.org/2000/svg" p-id="2652" xmlns:xlink="http://www.w3.org/1999/xlink" width="16" height="16"><defs><style type="text/css"></style></defs><path d="M512 1024c282.766222 0 512-229.233778 512-512S794.766222 0 512 0 0 229.233778 0 512s229.233778 512 512 512z m-146.261333-563.683556v36.835556h36.551111v-36.835556h-36.551111z m0 110.563556v36.835556h36.551111V570.88h-36.551111z m73.102222 0v36.835556h219.420444V570.88h-219.420444z m0-110.563556v36.835556h219.420444v-36.835556h-219.420444zM487.054222 312.888889c14.705778 0 27.477333 9.557333 31.004445 23.210667l9.955555 38.030222h207.985778c17.635556 0 32 13.767111 32 30.634666v275.712c0 16.924444-14.336 30.634667-32 30.634667h-448C270.364444 711.111111 256 697.344 256 680.476444V343.523556C256 326.599111 270.336 312.888889 288 312.888889h199.054222z" p-id="2653" fill="#ffffff"></path></svg>