<?xml version="1.0" standalone="no"?><!DOCTYPE svg PUBLIC "-//W3C//DTD SVG 1.1//EN" "http://www.w3.org/Graphics/SVG/1.1/DTD/svg11.dtd"><svg t="1547271516058" class="icon" style="" viewBox="0 0 1024 1024" version="1.1" xmlns="http://www.w3.org/2000/svg" p-id="1997" xmlns:xlink="http://www.w3.org/1999/xlink" width="16" height="16"><defs><style type="text/css"></style></defs><path d="M558.876122 435.310364c-32.397874 0-62.977333 12.679787-85.874833 35.679617-22.958898 22.920012-35.620265 53.43705-35.620265 85.877903 0 32.43676 12.661368 62.954821 35.620265 85.912695 22.897499 22.960944 53.476959 35.600823 85.874833 35.600823 32.478715 0 63.037708-12.639878 85.97614-35.600823 22.960944-22.958898 35.55989-53.475935 35.55989-85.912695 0-32.440853-12.598946-62.957891-35.55989-85.877903C621.91383 447.990151 591.355861 435.310364 558.876122 435.310364z" p-id="1998"></path><path d="M757.908154 114.234741 424.30317 114.234741c-2.838651 0-5.560646 1.079588-7.600095 3.15997L207.5925 326.514495c-2.020006 2.041496-3.140527 4.76042-3.140527 7.641027l0 513.937119c0 34.000372 27.658943 61.679781 61.636802 61.679781l491.819378 0c33.979906 0 61.636802-27.680433 61.636802-61.679781L819.544957 175.922708C819.54598 141.963269 791.889083 114.234741 757.908154 114.234741zM244.191046 334.155523l176.891779-176.954201 0 126.035508c0 28.119431-22.838148 50.918693-50.937113 50.918693L244.191046 334.155523zM685.232948 683.179684c-33.758871 33.759895-78.598102 52.277644-126.356826 52.277644-42.217521 0-82.096786-14.518668-114.155946-41.317011L431.782515 707.138352c5.599532 14.640442 2.619664 31.879058-9.15859 43.677778l-54.358025 54.358025c-15.939017 15.920598-41.759079 15.920598-57.71754 0-15.920598-15.917528-15.899108-41.718147 0-57.676607l54.395888-54.31607c11.782348-11.879562 29.058826-14.880919 43.699268-9.159614l12.980639-13.001105c-26.7789-31.997762-41.378409-71.954799-41.378409-114.152876 0-47.719838 18.619056-92.597955 52.356438-126.315894 33.721009-33.721009 78.577636-52.318576 126.274962-52.318576 47.758724 0 92.596931 18.559705 126.356826 52.318576 33.718963 33.717939 52.297087 78.596056 52.316529 126.315894C737.549477 604.585675 718.951911 649.462768 685.232948 683.179684z" p-id="1999" fill="#ffffff"></path></svg>