<?xml version="1.0" standalone="no"?><!DOCTYPE svg PUBLIC "-//W3C//DTD SVG 1.1//EN" "http://www.w3.org/Graphics/SVG/1.1/DTD/svg11.dtd"><svg t="1547188664352" class="icon" style="" viewBox="0 0 1098 1024" version="1.1" xmlns="http://www.w3.org/2000/svg" p-id="6543" xmlns:xlink="http://www.w3.org/1999/xlink" width="34.3125" height="32"><defs><style type="text/css"></style></defs><path d="M352.548864 799.442944l-28.5696 28.5696q-5.71392 5.71392-13.142016 5.71392t-13.142016-5.71392l-266.268672-266.268672q-5.71392-5.71392-5.71392-13.142016t5.71392-13.142016l266.268672-266.268672q5.71392-5.71392 13.142016-5.71392t13.142016 5.71392l28.5696 28.5696q5.71392 5.71392 5.71392 13.142016t-5.71392 13.142016l-224.557056 224.557056 224.557056 224.557056q5.71392 5.71392 5.71392 13.142016t-5.71392 13.142016zm337.692672-609.675264l-213.129216 737.667072q-2.285568 7.428096-8.856576 11.142144t-13.427712 1.42848l-35.426304-9.713664q-7.428096-2.285568-11.142144-8.856576t-1.42848-13.999104l213.129216-737.667072q2.285568-7.428096 8.856576-11.142144t13.427712-1.42848l35.426304 9.713664q7.428096 2.285568 11.142144 8.856576t1.42848 13.999104zm375.404544 371.976192l-266.268672 266.268672q-5.71392 5.71392-13.142016 5.71392t-13.142016-5.71392l-28.5696-28.5696q-5.71392-5.71392-5.71392-13.142016t5.71392-13.142016l224.557056-224.557056-224.557056-224.557056q-5.71392-5.71392-5.71392-13.142016t5.71392-13.142016l28.5696-28.5696q5.71392-5.71392 13.142016-5.71392t13.142016 5.71392l266.268672 266.268672q5.71392 5.71392 5.71392 13.142016t-5.71392 13.142016z" p-id="6544" fill="#2c2c2c"></path></svg>