<?xml version="1.0" standalone="no"?><!DOCTYPE svg PUBLIC "-//W3C//DTD SVG 1.1//EN" "http://www.w3.org/Graphics/SVG/1.1/DTD/svg11.dtd"><svg t="1547193057156" class="icon" style="" viewBox="0 0 1024 1024" version="1.1" xmlns="http://www.w3.org/2000/svg" p-id="8519" xmlns:xlink="http://www.w3.org/1999/xlink" width="16" height="16"><defs><style type="text/css"></style></defs><path d="M997.615573 761.387743 866.325595 761.387743 866.325595 892.677722c0 14.419611-11.752559 26.243691-26.243691 26.243691s-26.243691-11.824081-26.243691-26.243691L813.838212 761.387743 682.54708 761.387743c-14.492286 0-26.243691-11.752559-26.243691-26.243691s11.752559-26.316366 26.243691-26.316366l131.291132 0 0-131.218457c0-14.492286 11.752559-26.243691 26.243691-26.243691s26.243691 11.752559 26.243691 26.243691l0 131.218457L997.615573 708.827686c14.492286 0 26.243691 11.824081 26.243691 26.316366S1012.107859 761.387743 997.615573 761.387743zM813.838212 288.857102c0-28.947657-23.503965-52.487383-52.487383-52.487383L472.597549 236.369719l-26.243691 0-52.523143 0 0-26.243691c0-28.983417-23.503965-52.487383-52.487383-52.487383L105.077433 157.638645c-28.983417 0-52.487383 23.503965-52.487383 52.487383l0 78.731074 0 52.523143 0 73.901081 0 109.841673 0 288.75328c0 28.983417 23.503965 52.487383 52.487383 52.487383l498.738572 0 0 52.560058L78.833742 918.92372c-43.475703 0-78.731074-35.328046-78.731074-78.803749L0.102668 341.380245l0-78.766835 0-78.731074c0-43.511464 35.256525-78.766835 78.731074-78.766835l288.75328 0c43.475703 0 78.766835 35.256525 78.766835 78.766835l341.240663 0c43.475703 0 78.731074 35.256525 78.731074 78.731074l0 157.497909-52.487383 0L813.838212 288.857102z" p-id="8520"></path></svg>